<svg version="1.1" xmlns="http://www.w3.org/2000/svg" xmlns:xlink="http://www.w3.org/1999/xlink" width="52.52924" height="45.79171" viewBox="0,0,52.52924,45.79171"><g transform="translate(-159.09281,-213.06984)"><g data-paper-data="{&quot;isPaintingLayer&quot;:true}" fill-rule="nonzero" stroke-width="9" stroke-linejoin="miter" stroke-miterlimit="10" stroke-dasharray="" stroke-dashoffset="0" style="mix-blend-mode: normal"><path d="M193.24792,217.76042v18.56636" fill="none" stroke="#ff6666" stroke-linecap="round"/><path d="M192.7307,217.56985h-18.56636" data-paper-data="{&quot;origRot&quot;:0}" fill="none" stroke="#ff6666" stroke-linecap="round"/><path d="M173.97377,236.98016v-18.56636" data-paper-data="{&quot;origRot&quot;:0}" fill="none" stroke="#ff6666" stroke-linecap="round"/><path d="M174.49101,237.17072h18.56636" data-paper-data="{&quot;origRot&quot;:0}" fill="none" stroke="#ff6666" stroke-linecap="round"/><path d="M183.5416,237.76304c-5.68327,0 -10.29045,-4.6072 -10.29045,-10.29045c0,-5.68327 4.6072,-10.29045 10.29045,-10.29045c5.68327,0 10.29045,4.6072 10.29045,10.29045c0,5.68327 -4.6072,10.29045 -10.29045,10.29045z" fill="#ffffff" stroke="none" stroke-linecap="butt"/><path d="M183.5416,233.27118c-3.20247,0 -5.79859,-2.59612 -5.79859,-5.79859c0,-3.20247 2.59612,-5.79859 5.79859,-5.79859c3.20247,0 5.79859,2.59612 5.79859,5.79859c0,3.20247 -2.59612,5.79859 -5.79859,5.79859z" fill="#191919" stroke="none" stroke-linecap="butt"/><path d="M186.16865,249.63826l-3.85818,-18.16106" fill="none" stroke="#00ff1b" stroke-linecap="round"/><path d="M163.60386,235.25645l18.16106,-3.85818" data-paper-data="{&quot;origRot&quot;:0}" fill="none" stroke="#00ff1b" stroke-linecap="round"/><path d="M167.45099,254.28263l-3.85818,-18.16106" data-paper-data="{&quot;origRot&quot;:0}" fill="none" stroke="#00ff1b" stroke-linecap="round"/><path d="M186.15762,250.50337l-18.16106,3.85818" data-paper-data="{&quot;origRot&quot;:0}" fill="none" stroke="#00ff1b" stroke-linecap="round"/><path d="M176.97267,253.06019c-5.55921,1.18101 -11.02321,-2.36822 -12.20422,-7.92741c-1.18101,-5.55921 2.36822,-11.02321 7.92741,-12.20422c5.55921,-1.18101 11.02321,2.36822 12.20422,7.92741c1.18101,5.55921 -2.36822,11.02321 -7.92741,12.20422z" fill="#ffffff" stroke="none" stroke-linecap="butt"/><path d="M176.03925,248.66639c-3.13256,0.66549 -6.21149,-1.33447 -6.87698,-4.46703c-0.66549,-3.13256 1.33447,-6.21149 4.46703,-6.87698c3.13256,-0.66549 6.21149,1.33447 6.87698,4.46703c0.66549,3.13256 -1.33447,6.21149 -4.46703,6.87698z" fill="#191919" stroke="none" stroke-linecap="butt"/><path d="M207.12206,234.53403l-4.68891,17.96451" fill="none" stroke="#fff766" stroke-linecap="round"/><path d="M188.7052,229.5301l17.96451,4.68891" data-paper-data="{&quot;origRot&quot;:0}" fill="none" stroke="#fff766" stroke-linecap="round"/><path d="M183.61876,248.26307l4.68891,-17.96451" data-paper-data="{&quot;origRot&quot;:0}" fill="none" stroke="#fff766" stroke-linecap="round"/><path d="M202.03564,253.26701l-17.96451,-4.68891" data-paper-data="{&quot;origRot&quot;:0}" fill="none" stroke="#fff766" stroke-linecap="round"/><path d="M192.67875,251.43693c-5.49905,-1.4353 -8.79334,-7.05669 -7.35804,-12.55572c1.4353,-5.49905 7.05669,-8.79334 12.55572,-7.35804c5.49905,1.4353 8.79334,7.05669 7.35804,12.55572c-1.4353,5.49905 -7.05669,8.79334 -12.55572,7.35804z" fill="#ffffff" stroke="none" stroke-linecap="butt"/><path d="M193.81315,247.09067c-3.09865,-0.80878 -4.95498,-3.97639 -4.1462,-7.07505c0.80878,-3.09865 3.97639,-4.95498 7.07505,-4.1462c3.09865,0.80878 4.95498,3.97639 4.1462,7.07505c-0.80878,3.09865 -3.97639,4.95498 -7.07505,4.1462z" fill="#191919" stroke="none" stroke-linecap="butt"/></g></g></svg>