<svg version="1.1" xmlns="http://www.w3.org/2000/svg" xmlns:xlink="http://www.w3.org/1999/xlink" width="82.992" height="85.8342" viewBox="0,0,82.992,85.8342"><g transform="translate(-146.58852,-179.90905)"><g data-paper-data="{&quot;isPaintingLayer&quot;:true}" fill-rule="nonzero" stroke-linejoin="miter" stroke-miterlimit="10" stroke-dasharray="" stroke-dashoffset="0" style="mix-blend-mode: normal"><g><path d="M193.2479,217.76039v18.56636" fill="none" stroke="#ff6666" stroke-width="9" stroke-linecap="round"/><path d="M174.16431,217.56982h18.56636" data-paper-data="{&quot;origRot&quot;:0}" fill="none" stroke="#ff6666" stroke-width="9" stroke-linecap="round"/><path d="M173.97374,236.98014v-18.56636" data-paper-data="{&quot;origRot&quot;:0}" fill="none" stroke="#ff6666" stroke-width="9" stroke-linecap="round"/><path d="M193.05735,237.1707h-18.56636" data-paper-data="{&quot;origRot&quot;:0}" fill="none" stroke="#ff6666" stroke-width="9" stroke-linecap="round"/><path d="M183.54158,237.76303c-5.68327,0 -10.29045,-4.6072 -10.29045,-10.29045c0,-5.68327 4.6072,-10.29045 10.29045,-10.29045c5.68327,0 10.29045,4.6072 10.29045,10.29045c0,5.68327 -4.6072,10.29045 -10.29045,10.29045z" fill="#ffffff" stroke="none" stroke-width="9" stroke-linecap="butt"/><path d="M183.54158,233.27116c-3.20247,0 -5.79859,-2.59612 -5.79859,-5.79859c0,-3.20247 2.59612,-5.79859 5.79859,-5.79859c3.20247,0 5.79859,2.59612 5.79859,5.79859c0,3.20247 -2.59612,5.79859 -5.79859,5.79859z" fill="#191919" stroke="none" stroke-width="9" stroke-linecap="butt"/><path d="M182.31044,231.47717l3.85818,18.16106" fill="none" stroke="#00ff1b" stroke-width="9" stroke-linecap="round"/><path d="M163.60384,235.25642l18.16106,-3.85818" data-paper-data="{&quot;origRot&quot;:0}" fill="none" stroke="#00ff1b" stroke-width="9" stroke-linecap="round"/><path d="M167.45097,254.2826l-3.85818,-18.16106" data-paper-data="{&quot;origRot&quot;:0}" fill="none" stroke="#00ff1b" stroke-width="9" stroke-linecap="round"/><path d="M167.99653,254.36153l18.16106,-3.85818" data-paper-data="{&quot;origRot&quot;:0}" fill="none" stroke="#00ff1b" stroke-width="9" stroke-linecap="round"/><path d="M176.97265,253.06016c-5.55921,1.18101 -11.02321,-2.36822 -12.20422,-7.92741c-1.18101,-5.55921 2.36822,-11.02321 7.92741,-12.20422c5.55921,-1.18101 11.02321,2.36822 12.20422,7.92741c1.18101,5.55921 -2.36822,11.02321 -7.92741,12.20422z" fill="#ffffff" stroke="none" stroke-width="9" stroke-linecap="butt"/><path d="M176.03922,248.66636c-3.13256,0.66549 -6.21149,-1.33447 -6.87698,-4.46703c-0.66549,-3.13256 1.33447,-6.21149 4.46703,-6.87698c3.13256,-0.66549 6.21149,1.33447 6.87698,4.46703c0.66549,3.13256 -1.33447,6.21149 -4.46703,6.87698z" fill="#191919" stroke="none" stroke-width="9" stroke-linecap="butt"/><path d="M202.43312,252.49851l4.68891,-17.96451" fill="none" stroke="#fff766" stroke-width="9" stroke-linecap="round"/><path d="M206.66969,234.21899l-17.96451,-4.68891" data-paper-data="{&quot;origRot&quot;:0}" fill="none" stroke="#fff766" stroke-width="9" stroke-linecap="round"/><path d="M183.61873,248.26305l4.68891,-17.96451" data-paper-data="{&quot;origRot&quot;:0}" fill="none" stroke="#fff766" stroke-width="9" stroke-linecap="round"/><path d="M184.0711,248.57808l17.96451,4.68891" data-paper-data="{&quot;origRot&quot;:0}" fill="none" stroke="#fff766" stroke-width="9" stroke-linecap="round"/><path d="M192.67872,251.43691c-5.49905,-1.4353 -8.79334,-7.05669 -7.35804,-12.55572c1.4353,-5.49905 7.05669,-8.79334 12.55572,-7.35804c5.49905,1.4353 8.79334,7.05669 7.35804,12.55572c-1.4353,5.49905 -7.05669,8.79334 -12.55572,7.35804z" fill="#ffffff" stroke="none" stroke-width="9" stroke-linecap="butt"/><path d="M193.81312,247.09066c-3.09865,-0.80878 -4.95498,-3.97639 -4.1462,-7.07505c0.80878,-3.09865 3.97639,-4.95498 7.07505,-4.1462c3.09865,0.80878 4.95498,3.97639 4.1462,7.07505c-0.80878,3.09865 -3.97639,4.95498 -7.07505,4.1462z" fill="#191919" stroke="none" stroke-width="9" stroke-linecap="butt"/><path d="M146.58852,265.74325v-11.36877h82.992v11.36877z" fill="#404040" stroke="none" stroke-width="0" stroke-linecap="butt"/><path d="M146.58852,191.27782v-11.36877h82.992v11.36877z" fill="#404040" stroke="none" stroke-width="0" stroke-linecap="butt"/><path d="M155.54635,181.41346l11.36876,0.01536l-0.11215,82.99193l-11.36876,-0.01536z" fill="#404040" stroke="none" stroke-width="0" stroke-linecap="butt"/><path d="M209.35473,181.78862l11.36876,0.01536l-0.11215,82.99193l-11.36876,-0.01536z" fill="#404040" stroke="none" stroke-width="0" stroke-linecap="butt"/><path d="M183.58173,187.84817l11.36876,0.01326l-0.11216,71.62527l-11.36876,-0.01326z" fill="#404040" stroke="none" stroke-width="0" stroke-linecap="butt"/></g><g><path d="M180.27971,213.19476c0,-5.84505 3.56444,-10.58341 7.96139,-10.58341c4.39696,0 7.96139,4.73836 7.96139,10.58341c0,5.84506 -3.56444,10.58341 -7.96139,10.58341c-4.39696,0 -7.96139,-4.73835 -7.96139,-10.58341z" fill="none" stroke="#818181" stroke-width="5.5" stroke-linecap="butt"/><path d="M197.63269,213.19476l3.14642,3.33711l-0.28604,18.68783l-2.19296,3.43246h-18.40179l-2.95573,-4.19523l0.28603,-18.59248l1.81158,-2.95573z" fill="#818181" stroke="#818181" stroke-width="0.5" stroke-linecap="round"/><path d="M187.90739,225.39905l5.72077,7.72303l-11.63222,0.19069z" fill="#000000" stroke="#000000" stroke-width="0.5" stroke-linecap="round"/><path d="M185.71443,230.16636v-9.24857h4.19523v9.24857z" fill="#000000" stroke="#000000" stroke-width="0.5" stroke-linecap="butt"/><path d="M185.4284,217.533c0,-1.18481 0.96048,-2.14529 2.14528,-2.14529c1.18481,0 2.14529,0.96048 2.14529,2.14529c0,1.18481 -0.96048,2.14528 -2.14529,2.14528c-1.1848,0 -2.14528,-0.96048 -2.14528,-2.14528z" fill="#000000" stroke="#818181" stroke-width="0.5" stroke-linecap="butt"/></g></g></g></svg>