<svg version="1.1" xmlns="http://www.w3.org/2000/svg" xmlns:xlink="http://www.w3.org/1999/xlink" width="49.33334" height="27.17613" viewBox="0,0,49.33334,27.17613"><g transform="translate(-215.33333,-165.82387)"><g data-paper-data="{&quot;isPaintingLayer&quot;:true}" fill-rule="nonzero" stroke-linecap="butt" stroke-linejoin="miter" stroke-miterlimit="10" stroke-dasharray="" stroke-dashoffset="0" style="mix-blend-mode: normal"><path d="M216.08333,179.91667c0,-6.71946 5.4472,-12.16667 12.16667,-12.16667c6.71946,0 12.16667,5.4472 12.16667,12.16667c0,6.71946 -5.4472,12.16667 -12.16667,12.16667c-6.71946,0 -12.16667,-5.4472 -12.16667,-12.16667z" fill="#ffffff" stroke="#000000" stroke-width="1.5"/><path d="M239.41667,180c0,-6.76549 5.48451,-12.25 12.25,-12.25c6.76549,0 12.25,5.48451 12.25,12.25c0,6.76549 -5.48451,12.25 -12.25,12.25c-6.76549,0 -12.25,-5.48451 -12.25,-12.25z" fill="#ffffff" stroke="#000000" stroke-width="1.5"/><path d="M227.25,192.08334v-24.33333h26.16667v24.33333z" fill="#ffffff" stroke="#000000" stroke-width="1.5"/><path d="M227.75,168.41667c1.38071,0 2.5,1.11929 2.5,2.5c0,0.47242 -0.13104,0.91424 -0.35875,1.29109c0.09463,4.0993 -0.66755,12.19864 -0.64125,13.02544c0.0536,1.6851 2.01089,5.20233 -0.91883,5.77157c-0.3272,0.15718 -0.69391,0.24524 -1.08117,0.24524c-1.38071,0 -2.5,-1.11929 -2.5,-2.5c0,-0.16411 0.01581,-0.32453 0.046,-0.47982c-1.11252,-4.13469 -0.0648,-11.51682 -0.046,-12.92587c0.02396,-1.79569 -1.0471,-4.47215 0.51213,-5.36314c0.14791,-0.25062 0.3383,-0.47318 0.56127,-0.65777c0.45856,-0.55387 1.15138,-0.90673 1.92661,-0.90673z" fill="#ffffff" stroke="none" stroke-width="0.5"/><path d="M250.58333,188.91667c0,-0.57888 0.19675,-1.11181 0.52703,-1.53556c0.09795,-0.66229 0.45563,-1.23997 0.96619,-1.62618c-2.68584,-1.70404 -1.78264,-9.53938 -1.65988,-11.6127c0.09208,-1.55523 -1.00722,-3.88811 0.34546,-4.66107c0.43488,-0.73685 1.23698,-1.23117 2.15454,-1.23117c0.91264,0 1.71107,0.48903 2.14752,1.21935c0.13238,0.1718 0.22526,0.39128 0.28471,0.70004c0.04431,0.18632 0.06777,0.38073 0.06777,0.58061c0.09155,1.50562 0.63238,11.15526 0.33333,12.83333c-0.14437,0.8101 -0.29667,1.56983 -0.86075,2.03445c0.71631,0.43965 1.19408,1.23014 1.19408,2.13222c0,0.57888 -0.19675,1.11181 -0.52703,1.53556c-0.17833,1.2058 -1.21759,2.13111 -2.47297,2.13111c-1.38071,0 -2.5,-1.11929 -2.5,-2.5z" fill="#ffffff" stroke="none" stroke-width="0.5"/><text transform="translate(222.58333,185.47369) scale(0.45172,0.45172)" font-size="40" xml:space="preserve" fill="#000000" fill-rule="nonzero" stroke="none" stroke-width="1" stroke-linecap="butt" stroke-linejoin="miter" stroke-miterlimit="10" stroke-dasharray="" stroke-dashoffset="0" font-family="Sans Serif" font-weight="normal" text-anchor="start" style="mix-blend-mode: normal"><tspan x="0" dy="0">Play</tspan></text></g></g></svg>