<svg version="1.1" xmlns="http://www.w3.org/2000/svg" xmlns:xlink="http://www.w3.org/1999/xlink" width="430.7108" height="286.88366" viewBox="0,0,430.7108,286.88366"><defs><linearGradient x1="334.08318" y1="284.7697" x2="334.08318" y2="316.34826" gradientUnits="userSpaceOnUse" id="color-1"><stop offset="0" stop-color="#005d82"/><stop offset="1" stop-color="#112e54"/></linearGradient><linearGradient x1="334.08318" y1="294.56081" x2="334.08318" y2="306.55715" gradientUnits="userSpaceOnUse" id="color-2"><stop offset="0" stop-color="#064b71"/><stop offset="1" stop-color="#0b3e64"/></linearGradient></defs><g transform="translate(-46.25,-31.75)"><g data-paper-data="{&quot;isPaintingLayer&quot;:true}" stroke-miterlimit="10" stroke-dasharray="" stroke-dashoffset="0" style="mix-blend-mode: normal"><text transform="translate(132.5,53.5) scale(0.5,0.5)" font-size="40" xml:space="preserve" fill="#000000" fill-rule="nonzero" stroke="none" stroke-width="1" stroke-linecap="butt" stroke-linejoin="miter" stroke-miterlimit="10" stroke-dasharray="" stroke-dashoffset="0" font-family="Sans Serif" font-weight="normal" text-anchor="start" style="mix-blend-mode: normal"><tspan x="0" dy="0">Once there lived a peaceful</tspan><tspan x="0" dy="46.150000000000006px">                 village.</tspan></text><path d="M324.91539,284.7697h18.33558c3.85062,0 6.97197,3.02447 6.97197,6.75559v18.06738c0,3.73084 -3.12134,6.75559 -6.97197,6.75559h-18.33558c-3.85053,0 -6.97203,-3.02476 -6.97203,-6.75559v-18.06738c0,-3.73111 3.1215,-6.75559 6.97203,-6.75559z" fill="url(#color-1)" fill-rule="evenodd" stroke="none" stroke-width="14" stroke-linecap="round" stroke-linejoin="round"/><path d="M322.86077,300.55898c0,-6.19795 5.02443,-11.22238 11.22238,-11.22238c6.19795,0 11.22238,5.02443 11.22238,11.22238c0,6.19795 -5.02443,11.22238 -11.22238,11.22238c-6.19795,0 -11.22238,-5.02443 -11.22238,-11.22238z" fill="#ffffff" fill-rule="nonzero" stroke="none" stroke-width="0" stroke-linecap="butt" stroke-linejoin="miter"/><path d="M328.08498,300.55898c0,-3.3127 2.68547,-5.99817 5.99817,-5.99817c3.3127,0 5.99817,2.68547 5.99817,5.99817c0,3.3127 -2.68547,5.99817 -5.99817,5.99817c-3.3127,0 -5.99817,-2.68547 -5.99817,-5.99817z" fill="url(#color-2)" fill-rule="nonzero" stroke="none" stroke-width="0" stroke-linecap="butt" stroke-linejoin="miter"/><text transform="translate(46.5,88.00316) scale(0.5,0.5)" font-size="40" xml:space="preserve" fill="#000000" fill-rule="nonzero" stroke="none" stroke-width="1" stroke-linecap="butt" stroke-linejoin="miter" stroke-miterlimit="10" stroke-dasharray="" stroke-dashoffset="0" font-family="Sans Serif" font-weight="normal" text-anchor="start" style="mix-blend-mode: normal"><tspan x="0" dy="0">Win Game</tspan></text><g fill-rule="nonzero" stroke-width="9" stroke-linejoin="miter"><g><path d="M447.83826,288.99798v24.52105" fill="none" stroke="#ff6666" stroke-linecap="round"/><g><path d="M472.20911,287.49629h-24.52105" data-paper-data="{&quot;origRot&quot;:0}" fill="none" stroke="#ff6666" stroke-linecap="round"/><path d="M472.4608,313.13197v-24.52105" data-paper-data="{&quot;origRot&quot;:0}" fill="none" stroke="#ff6666" stroke-linecap="round"/><path d="M472.27766,314.13366h-24.52105" data-paper-data="{&quot;origRot&quot;:0}" fill="none" stroke="#ff6666" stroke-linecap="round"/><path d="M446.73345,301.82509c0,-7.50602 6.08482,-13.59086 13.59086,-13.59086c7.50602,0 13.59086,6.08482 13.59086,13.59086c0,7.50602 -6.08482,13.59086 -13.59086,13.59086c-7.50602,0 -13.59086,-6.08482 -13.59086,-13.59086z" fill="#ffffff" stroke="none" stroke-linecap="butt"/><path d="M452.66597,301.8251c0,-4.22958 3.42876,-7.65834 7.65834,-7.65834c4.22958,0 7.65834,3.42876 7.65834,7.65834c0,4.22958 -3.42876,7.65834 -7.65834,7.65834c-4.22958,0 -7.65834,-3.42876 -7.65834,-7.65834z" fill="#191919" stroke="none" stroke-linecap="butt"/></g></g><g><path d="M405.94286,311.58128l-0.15431,-24.52056" fill="none" stroke="#00ff1b" stroke-linecap="round"/><path d="M430.99065,286.65043l-24.52056,0.15431" data-paper-data="{&quot;origRot&quot;:0}" fill="none" stroke="#00ff1b" stroke-linecap="round"/><path d="M431.10597,312.09328l-0.15431,-24.52056" data-paper-data="{&quot;origRot&quot;:0}" fill="none" stroke="#00ff1b" stroke-linecap="round"/><path d="M430.72213,312.53997l-24.52056,0.15431" data-paper-data="{&quot;origRot&quot;:0}" fill="none" stroke="#00ff1b" stroke-linecap="round"/><path d="M405.09782,299.89242c-0.04723,-7.50587 5.99917,-13.62887 13.50506,-13.67611c7.50587,-0.04723 13.62888,5.99917 13.67612,13.50506c0.04723,7.50586 -5.99917,13.62888 -13.50507,13.67612c-7.50586,0.04723 -13.62887,-5.99917 -13.67611,-13.50507z" fill="#ffffff" stroke="none" stroke-linecap="butt"/><path d="M411.03021,299.8551c-0.02661,-4.2295 3.3805,-7.67976 7.61,-7.70638c4.22949,-0.02661 7.67976,3.38049 7.70638,7.60999c0.02661,4.2295 -3.3805,7.67977 -7.60999,7.70639c-4.22949,0.02661 -7.67977,-3.3805 -7.70638,-7.60999z" fill="#191919" stroke="none" stroke-linecap="butt"/></g><g><path d="M360.02559,288.08443l0.05326,24.521" fill="none" stroke="#fff766" stroke-linecap="round"/><path d="M385.22916,287.77801l-24.521,0.05326" data-paper-data="{&quot;origRot&quot;:0}" fill="none" stroke="#fff766" stroke-linecap="round"/><path d="M385.11603,289.31352l0.05326,24.52099" data-paper-data="{&quot;origRot&quot;:0}" fill="none" stroke="#fff766" stroke-linecap="round"/><path d="M384.85394,313.66623l-24.52099,0.05327" data-paper-data="{&quot;origRot&quot;:0}" fill="none" stroke="#fff766" stroke-linecap="round"/><path d="M359.28197,300.91319c-0.0163,-7.506 6.05529,-13.60405 13.56131,-13.62035c7.50599,-0.0163 13.60404,6.05529 13.62034,13.56131c0.0163,7.50599 -6.05528,13.60404 -13.56131,13.62034c-7.50599,0.0163 -13.60405,-6.05528 -13.62035,-13.56131z" fill="#ffffff" stroke="none" stroke-linecap="butt"/><path d="M365.21448,300.9003c-0.00919,-4.22957 3.41213,-7.66577 7.64169,-7.67495c4.22956,-0.00919 7.66577,3.41213 7.67496,7.64169c0.00919,4.22956 -3.41213,7.66577 -7.6417,7.67495c-4.22956,0.00919 -7.66576,-3.41213 -7.67495,-7.64169z" fill="#191919" stroke="none" stroke-linecap="butt"/></g></g><g fill-rule="nonzero" stroke-width="9" stroke-linejoin="miter"><g><path d="M282.17159,312.51903v-24.52105" fill="none" stroke="#ff6666" stroke-linecap="round"/><g><path d="M306.54245,286.49629h-24.52105" data-paper-data="{&quot;origRot&quot;:0}" fill="none" stroke="#ff6666" stroke-linecap="round"/><path d="M306.79414,287.61092v24.52105" data-paper-data="{&quot;origRot&quot;:0}" fill="none" stroke="#ff6666" stroke-linecap="round"/><path d="M282.08995,313.13366h24.52105" data-paper-data="{&quot;origRot&quot;:0}" fill="none" stroke="#ff6666" stroke-linecap="round"/><path d="M281.06679,300.82509c0,-7.50602 6.08482,-13.59086 13.59086,-13.59086c7.50602,0 13.59086,6.08482 13.59086,13.59086c0,7.50602 -6.08482,13.59086 -13.59086,13.59086c-7.50602,0 -13.59086,-6.08482 -13.59086,-13.59086z" fill="#ffffff" stroke="none" stroke-linecap="butt"/><path d="M286.99931,300.8251c0,-4.22958 3.42876,-7.65834 7.65834,-7.65834c4.22958,0 7.65834,3.42876 7.65834,7.65834c0,4.22958 -3.42876,7.65834 -7.65834,7.65834c-4.22958,0 -7.65834,-3.42876 -7.65834,-7.65834z" fill="#191919" stroke="none" stroke-linecap="butt"/></g></g><g><path d="M240.2762,310.58128l-0.15431,-24.52056" fill="none" stroke="#00ff1b" stroke-linecap="round"/><path d="M265.32399,285.65043l-24.52056,0.15431" data-paper-data="{&quot;origRot&quot;:0}" fill="none" stroke="#00ff1b" stroke-linecap="round"/><path d="M265.43931,311.09327l-0.15431,-24.52056" data-paper-data="{&quot;origRot&quot;:0}" fill="none" stroke="#00ff1b" stroke-linecap="round"/><path d="M265.05546,311.53998l-24.52056,0.15431" data-paper-data="{&quot;origRot&quot;:0}" fill="none" stroke="#00ff1b" stroke-linecap="round"/><path d="M239.43115,298.89242c-0.04723,-7.50587 5.99917,-13.62887 13.50506,-13.67611c7.50587,-0.04723 13.62888,5.99917 13.67612,13.50506c0.04723,7.50586 -5.99917,13.62888 -13.50507,13.67612c-7.50586,0.04723 -13.62887,-5.99917 -13.67611,-13.50507z" fill="#ffffff" stroke="none" stroke-linecap="butt"/><path d="M245.36354,298.8551c-0.02661,-4.2295 3.3805,-7.67976 7.61,-7.70638c4.22949,-0.02661 7.67977,3.38049 7.70638,7.60999c0.02661,4.2295 -3.3805,7.67977 -7.60999,7.70639c-4.22949,0.02661 -7.67977,-3.3805 -7.70638,-7.61z" fill="#191919" stroke="none" stroke-linecap="butt"/></g><g><path d="M194.35892,287.08444l0.05326,24.52099" fill="none" stroke="#fff766" stroke-linecap="round"/><path d="M219.56249,286.77801l-24.521,0.05326" data-paper-data="{&quot;origRot&quot;:0}" fill="none" stroke="#fff766" stroke-linecap="round"/><path d="M219.44936,288.31352l0.05326,24.521" data-paper-data="{&quot;origRot&quot;:0}" fill="none" stroke="#fff766" stroke-linecap="round"/><path d="M194.66629,312.71951l24.52099,-0.05327" data-paper-data="{&quot;origRot&quot;:0}" fill="none" stroke="#fff766" stroke-linecap="round"/><path d="M193.61531,299.91319c-0.0163,-7.506 6.05529,-13.60405 13.56131,-13.62035c7.50599,-0.0163 13.60404,6.05529 13.62034,13.56131c0.0163,7.50599 -6.05528,13.60404 -13.56131,13.62034c-7.50599,0.0163 -13.60405,-6.05528 -13.62035,-13.5613z" fill="#ffffff" stroke="none" stroke-linecap="butt"/><path d="M199.54781,299.9003c-0.00919,-4.22957 3.41213,-7.66577 7.64169,-7.67495c4.22956,-0.00919 7.66577,3.41213 7.67496,7.64169c0.00919,4.22956 -3.41213,7.66576 -7.6417,7.67495c-4.22956,0.00919 -7.66576,-3.41212 -7.67495,-7.64169z" fill="#191919" stroke="none" stroke-linecap="butt"/></g></g><g fill-rule="nonzero" stroke-width="9" stroke-linejoin="miter"><g><path d="M153.17159,288.99798v24.52105" fill="none" stroke="#ff6666" stroke-linecap="round"/><g><path d="M177.54245,287.49629h-24.52105" data-paper-data="{&quot;origRot&quot;:0}" fill="none" stroke="#ff6666" stroke-linecap="round"/><path d="M177.79414,288.61092v24.52105" data-paper-data="{&quot;origRot&quot;:0}" fill="none" stroke="#ff6666" stroke-linecap="round"/><path d="M177.611,314.13366h-24.52105" data-paper-data="{&quot;origRot&quot;:0}" fill="none" stroke="#ff6666" stroke-linecap="round"/><path d="M152.06678,301.82509c0,-7.50602 6.08482,-13.59086 13.59086,-13.59086c7.50602,0 13.59086,6.08482 13.59086,13.59086c0,7.50602 -6.08482,13.59086 -13.59086,13.59086c-7.50602,0 -13.59086,-6.08482 -13.59086,-13.59086z" fill="#ffffff" stroke="none" stroke-linecap="butt"/><path d="M157.99931,301.8251c0,-4.22958 3.42876,-7.65834 7.65834,-7.65834c4.22958,0 7.65834,3.42876 7.65834,7.65834c0,4.22958 -3.42876,7.65834 -7.65834,7.65834c-4.22958,0 -7.65834,-3.42876 -7.65834,-7.65834z" fill="#191919" stroke="none" stroke-linecap="butt"/></g></g><g><path d="M111.27619,311.58128l-0.15431,-24.52056" fill="none" stroke="#00ff1b" stroke-linecap="round"/><path d="M111.80343,286.80473l24.52056,-0.15431" data-paper-data="{&quot;origRot&quot;:0}" fill="none" stroke="#00ff1b" stroke-linecap="round"/><path d="M136.4393,312.09327l-0.15431,-24.52056" data-paper-data="{&quot;origRot&quot;:0}" fill="none" stroke="#00ff1b" stroke-linecap="round"/><path d="M136.05546,312.53997l-24.52056,0.15431" data-paper-data="{&quot;origRot&quot;:0}" fill="none" stroke="#00ff1b" stroke-linecap="round"/><path d="M110.43115,299.89242c-0.04723,-7.50586 5.99917,-13.62887 13.50506,-13.67611c7.50587,-0.04723 13.62888,5.99917 13.67612,13.50506c0.04723,7.50586 -5.99917,13.62888 -13.50507,13.67612c-7.50586,0.04723 -13.62887,-5.99917 -13.67611,-13.50507z" fill="#ffffff" stroke="none" stroke-linecap="butt"/><path d="M116.36354,299.8551c-0.02661,-4.2295 3.3805,-7.67977 7.61,-7.70638c4.22949,-0.02661 7.67976,3.38049 7.70638,7.60999c0.02661,4.22949 -3.3805,7.67977 -7.60999,7.70639c-4.22949,0.02661 -7.67977,-3.3805 -7.70638,-7.60999z" fill="#191919" stroke="none" stroke-linecap="butt"/></g><g><path d="M65.41218,312.60543l-0.05326,-24.52099" fill="none" stroke="#fff766" stroke-linecap="round"/><path d="M66.04149,287.83126l24.521,-0.05326" data-paper-data="{&quot;origRot&quot;:0}" fill="none" stroke="#fff766" stroke-linecap="round"/><path d="M90.44936,289.31352l0.05326,24.521" data-paper-data="{&quot;origRot&quot;:0}" fill="none" stroke="#fff766" stroke-linecap="round"/><path d="M90.18728,313.66623l-24.52099,0.05327" data-paper-data="{&quot;origRot&quot;:0}" fill="none" stroke="#fff766" stroke-linecap="round"/><path d="M64.6153,300.91319c-0.0163,-7.506 6.05529,-13.60404 13.56131,-13.62034c7.50599,-0.0163 13.60404,6.05529 13.62034,13.56131c0.0163,7.50599 -6.05528,13.60404 -13.56131,13.62034c-7.50599,0.0163 -13.60405,-6.05528 -13.62035,-13.56131z" fill="#ffffff" stroke="none" stroke-linecap="butt"/><path d="M70.54781,300.9003c-0.00919,-4.22956 3.41213,-7.66576 7.64169,-7.67495c4.22956,-0.00919 7.66577,3.41213 7.67496,7.64169c0.00919,4.22956 -3.41213,7.66576 -7.6417,7.67495c-4.22956,0.00919 -7.66576,-3.41213 -7.67495,-7.64169z" fill="#191919" stroke="none" stroke-linecap="butt"/></g></g></g></g></svg>