<svg version="1.1" xmlns="http://www.w3.org/2000/svg" xmlns:xlink="http://www.w3.org/1999/xlink" width="799.49824" height="333.72268" viewBox="0,0,799.49824,333.72268"><defs><linearGradient x1="148.99009" y1="279.88231" x2="148.99009" y2="311.46087" gradientUnits="userSpaceOnUse" id="color-1"><stop offset="0" stop-color="#005d82"/><stop offset="1" stop-color="#112e54"/></linearGradient><linearGradient x1="148.99009" y1="289.67342" x2="148.99009" y2="301.66976" gradientUnits="userSpaceOnUse" id="color-2"><stop offset="0" stop-color="#064b71"/><stop offset="1" stop-color="#0b3e64"/></linearGradient></defs><g transform="translate(175.77614,-65.30105)"><g data-paper-data="{&quot;isPaintingLayer&quot;:true}" stroke-miterlimit="10" stroke-dasharray="" stroke-dashoffset="0" style="mix-blend-mode: normal"><path d="M-160.98867,376.03635v-65h718.24842v65z" fill="#32cf47" fill-rule="nonzero" stroke="#000000" stroke-width="0" stroke-linecap="butt" stroke-linejoin="miter"/><path d="M-167.68865,386.88634v-65h718.24842v65z" fill="#30a640" fill-rule="nonzero" stroke="#000000" stroke-width="0" stroke-linecap="butt" stroke-linejoin="miter"/><path d="M-175.77614,399.02373v-66.29985h799.49824v66.29985z" fill="#ba8030" fill-rule="nonzero" stroke="none" stroke-width="0" stroke-linecap="butt" stroke-linejoin="miter"/><text transform="translate(89.01651,87.05105) scale(0.5,0.5)" font-size="40" xml:space="preserve" fill="#000000" fill-rule="nonzero" stroke="none" stroke-width="1" stroke-linecap="butt" stroke-linejoin="miter" stroke-miterlimit="10" stroke-dasharray="" stroke-dashoffset="0" font-family="Sans Serif" font-weight="normal" text-anchor="start" style="mix-blend-mode: normal"><tspan x="0" dy="0">But there was one villager left</tspan></text><path d="M122.40691,318.41261v-51.6h49v51.6z" fill="none" fill-rule="nonzero" stroke="none" stroke-width="0" stroke-linecap="butt" stroke-linejoin="miter"/><path d="M122.40691,318.41261v-51.6h49v51.6z" fill="none" fill-rule="nonzero" stroke="none" stroke-width="0" stroke-linecap="butt" stroke-linejoin="miter"/><path d="M139.8223,279.88231h18.33558c3.85062,0 6.97197,3.02447 6.97197,6.75559v18.06738c0,3.73084 -3.12134,6.75559 -6.97197,6.75559h-18.33558c-3.85053,0 -6.97203,-3.02476 -6.97203,-6.75559v-18.06738c0,-3.73111 3.1215,-6.75559 6.97203,-6.75559z" fill="url(#color-1)" fill-rule="evenodd" stroke="none" stroke-width="14" stroke-linecap="round" stroke-linejoin="round"/><path d="M137.76768,295.67159c0,-6.19795 5.02443,-11.22238 11.22238,-11.22238c6.19795,0 11.22238,5.02443 11.22238,11.22238c0,6.19795 -5.02443,11.22238 -11.22238,11.22238c-6.19795,0 -11.22238,-5.02443 -11.22238,-11.22238z" fill="#ffffff" fill-rule="nonzero" stroke="none" stroke-width="0" stroke-linecap="butt" stroke-linejoin="miter"/><path d="M142.99189,295.67159c0,-3.3127 2.68547,-5.99817 5.99817,-5.99817c3.3127,0 5.99817,2.68547 5.99817,5.99817c0,3.3127 -2.68547,5.99817 -5.99817,5.99817c-3.3127,0 -5.99817,-2.68547 -5.99817,-5.99817z" fill="url(#color-2)" fill-rule="nonzero" stroke="none" stroke-width="0" stroke-linecap="butt" stroke-linejoin="miter"/><path d="M148.90411,293.82635c0,-1.30779 1.06017,-2.36796 2.36796,-2.36796c1.30779,0 2.36796,1.06017 2.36796,2.36796c0,1.30779 -1.06017,2.36796 -2.36796,2.36796c-1.30779,0 -2.36796,-1.06017 -2.36796,-2.36796z" fill="#ffffff" fill-rule="nonzero" stroke="none" stroke-width="0" stroke-linecap="butt" stroke-linejoin="miter"/></g></g></svg>