<svg version="1.1" xmlns="http://www.w3.org/2000/svg" xmlns:xlink="http://www.w3.org/1999/xlink" width="82.992" height="85.83419" viewBox="0,0,82.992,85.83419"><g transform="translate(-146.58853,-179.90906)"><g data-paper-data="{&quot;isPaintingLayer&quot;:true}" fill-rule="nonzero" stroke-linejoin="miter" stroke-miterlimit="10" stroke-dasharray="" stroke-dashoffset="0" style="mix-blend-mode: normal"><g><path d="M193.24792,217.76041v18.56636" fill="none" stroke="#ff6666" stroke-width="9" stroke-linecap="round"/><path d="M192.73069,217.56984h-18.56636" data-paper-data="{&quot;origRot&quot;:0}" fill="none" stroke="#ff6666" stroke-width="9" stroke-linecap="round"/><path d="M173.97376,236.98015v-18.56636" data-paper-data="{&quot;origRot&quot;:0}" fill="none" stroke="#ff6666" stroke-width="9" stroke-linecap="round"/><path d="M174.49101,237.17072h18.56636" data-paper-data="{&quot;origRot&quot;:0}" fill="none" stroke="#ff6666" stroke-width="9" stroke-linecap="round"/><path d="M183.5416,237.76303c-5.68327,0 -10.29045,-4.6072 -10.29045,-10.29045c0,-5.68327 4.6072,-10.29045 10.29045,-10.29045c5.68327,0 10.29045,4.6072 10.29045,10.29045c0,5.68327 -4.6072,10.29045 -10.29045,10.29045z" fill="#ffffff" stroke="none" stroke-width="9" stroke-linecap="butt"/><path d="M183.5416,233.27118c-3.20247,0 -5.79859,-2.59612 -5.79859,-5.79859c0,-3.20247 2.59612,-5.79859 5.79859,-5.79859c3.20247,0 5.79859,2.59612 5.79859,5.79859c0,3.20247 -2.59612,5.79859 -5.79859,5.79859z" fill="#191919" stroke="none" stroke-width="9" stroke-linecap="butt"/><path d="M186.16864,249.63825l-3.85818,-18.16106" fill="none" stroke="#00ff1b" stroke-width="9" stroke-linecap="round"/><path d="M163.60386,235.25644l18.16106,-3.85818" data-paper-data="{&quot;origRot&quot;:0}" fill="none" stroke="#00ff1b" stroke-width="9" stroke-linecap="round"/><path d="M167.45099,254.28262l-3.85818,-18.16106" data-paper-data="{&quot;origRot&quot;:0}" fill="none" stroke="#00ff1b" stroke-width="9" stroke-linecap="round"/><path d="M186.15761,250.50337l-18.16106,3.85818" data-paper-data="{&quot;origRot&quot;:0}" fill="none" stroke="#00ff1b" stroke-width="9" stroke-linecap="round"/><path d="M176.97267,253.06018c-5.55921,1.18101 -11.02321,-2.36822 -12.20422,-7.92741c-1.18101,-5.55921 2.36822,-11.02321 7.92741,-12.20422c5.55921,-1.18101 11.02321,2.36822 12.20422,7.92741c1.18101,5.55921 -2.36822,11.02321 -7.92741,12.20422z" fill="#ffffff" stroke="none" stroke-width="9" stroke-linecap="butt"/><path d="M176.03924,248.66638c-3.13256,0.66549 -6.21149,-1.33447 -6.87698,-4.46703c-0.66549,-3.13256 1.33447,-6.21149 4.46703,-6.87698c3.13256,-0.66549 6.21149,1.33447 6.87698,4.46703c0.66549,3.13256 -1.33447,6.21149 -4.46703,6.87698z" fill="#191919" stroke="none" stroke-width="9" stroke-linecap="butt"/><path d="M202.43314,252.49853l4.68891,-17.96451" fill="none" stroke="#fff766" stroke-width="9" stroke-linecap="round"/><path d="M188.7052,229.53009l17.96451,4.68891" data-paper-data="{&quot;origRot&quot;:0}" fill="none" stroke="#fff766" stroke-width="9" stroke-linecap="round"/><path d="M183.61875,248.26305l4.68891,-17.96451" data-paper-data="{&quot;origRot&quot;:0}" fill="none" stroke="#fff766" stroke-width="9" stroke-linecap="round"/><path d="M202.03563,253.26699l-17.96451,-4.68891" data-paper-data="{&quot;origRot&quot;:0}" fill="none" stroke="#fff766" stroke-width="9" stroke-linecap="round"/><path d="M192.67874,251.43693c-5.49905,-1.4353 -8.79334,-7.05669 -7.35804,-12.55572c1.4353,-5.49905 7.05669,-8.79334 12.55572,-7.35804c5.49905,1.4353 8.79334,7.05669 7.35804,12.55572c-1.4353,5.49905 -7.05669,8.79334 -12.55572,7.35804z" fill="#ffffff" stroke="none" stroke-width="9" stroke-linecap="butt"/><path d="M193.81314,247.09067c-3.09865,-0.80878 -4.95498,-3.97639 -4.1462,-7.07505c0.80878,-3.09865 3.97639,-4.95498 7.07505,-4.1462c3.09865,0.80878 4.95498,3.97639 4.1462,7.07505c-0.80878,3.09865 -3.97639,4.95498 -7.07505,4.1462z" fill="#191919" stroke="none" stroke-width="9" stroke-linecap="butt"/><path d="M146.58854,265.74325v-11.36877h82.992v11.36877z" fill="#404040" stroke="none" stroke-width="0" stroke-linecap="butt"/><path d="M146.58854,191.27784v-11.36877h82.992v11.36877z" fill="#404040" stroke="none" stroke-width="0" stroke-linecap="butt"/><path d="M155.54637,181.41346l11.36876,0.01536l-0.11215,82.99193l-11.36876,-0.01536z" fill="#404040" stroke="none" stroke-width="0" stroke-linecap="butt"/><path d="M209.35475,181.78864l11.36876,0.01536l-0.11215,82.99193l-11.36876,-0.01536z" fill="#404040" stroke="none" stroke-width="0" stroke-linecap="butt"/><path d="M183.58175,187.84818l11.36876,0.01326l-0.11216,71.62527l-11.36876,-0.01326z" fill="#404040" stroke="none" stroke-width="0" stroke-linecap="butt"/></g></g></g></svg>