<svg version="1.1" xmlns="http://www.w3.org/2000/svg" xmlns:xlink="http://www.w3.org/1999/xlink" width="246.74174" height="226.48649" viewBox="0,0,246.74174,226.48649"><g transform="translate(-116.62914,-66.75676)"><g data-paper-data="{&quot;isPaintingLayer&quot;:true}" fill-rule="nonzero" stroke-linejoin="miter" stroke-miterlimit="10" stroke-dasharray="" stroke-dashoffset="0" style="mix-blend-mode: normal"><g data-paper-data="{&quot;index&quot;:null}"><path d="M315.38549,253.38614v-24.52105" fill="none" stroke="#ff6666" stroke-width="9" stroke-linecap="round"/><path d="M314.70235,228.6134h-24.52105" data-paper-data="{&quot;origRot&quot;:0}" fill="none" stroke="#ff6666" stroke-width="9" stroke-linecap="round"/><path d="M289.92961,254.24908v-24.52105" data-paper-data="{&quot;origRot&quot;:0}" fill="none" stroke="#ff6666" stroke-width="9" stroke-linecap="round"/><path d="M315.1338,254.50077h-24.52105" data-paper-data="{&quot;origRot&quot;:0}" fill="none" stroke="#ff6666" stroke-width="9" stroke-linecap="round"/><path d="M302.5661,255.28306c-7.50604,0 -13.59086,-6.08484 -13.59086,-13.59086c0,-7.50604 6.08484,-13.59086 13.59086,-13.59086c7.50604,0 13.59086,6.08484 13.59086,13.59086c0,7.50604 -6.08484,13.59086 -13.59086,13.59086z" fill="#ffffff" stroke="none" stroke-width="9" stroke-linecap="butt"/><path d="M302.5661,249.35055c-4.22958,0 -7.65834,-3.42876 -7.65834,-7.65834c0,-4.22958 3.42876,-7.65834 7.65834,-7.65834c4.22958,0 7.65834,3.42876 7.65834,7.65834c0,4.22958 -3.42876,7.65834 -7.65834,7.65834z" fill="#191919" stroke="none" stroke-width="9" stroke-linecap="butt"/><path d="M306.0357,270.96694l-5.09559,-23.98576" fill="none" stroke="#00ff1b" stroke-width="9" stroke-linecap="round"/><path d="M300.21958,246.87694l-23.98576,5.09559" data-paper-data="{&quot;origRot&quot;:0}" fill="none" stroke="#00ff1b" stroke-width="9" stroke-linecap="round"/><path d="M276.21924,253.11512l5.09559,23.98576" data-paper-data="{&quot;origRot&quot;:0}" fill="none" stroke="#00ff1b" stroke-width="9" stroke-linecap="round"/><path d="M306.02112,272.10953l-23.98576,5.09559" data-paper-data="{&quot;origRot&quot;:0}" fill="none" stroke="#00ff1b" stroke-width="9" stroke-linecap="round"/><path d="M293.89034,275.48637c-7.34219,1.55979 -14.55863,-3.12777 -16.11842,-10.46993c-1.55979,-7.34219 3.12777,-14.55863 10.46993,-16.11842c7.34219,-1.55979 14.55863,3.12777 16.11842,10.46993c1.55979,7.34219 -3.12777,14.55863 -10.46993,16.11842z" fill="#ffffff" stroke="none" stroke-width="9" stroke-linecap="butt"/><path d="M292.65754,269.68337c-4.13725,0.87893 -8.20367,-1.76247 -9.0826,-5.89972c-0.87893,-4.13725 1.76247,-8.20367 5.89972,-9.0826c4.13725,-0.87893 8.20367,1.76247 9.0826,5.89972c0.87893,4.13725 -1.76247,8.20367 -5.89972,9.0826z" fill="#191919" stroke="none" stroke-width="9" stroke-linecap="butt"/><path d="M333.7094,251.01841l-6.19276,23.72618" fill="none" stroke="#fff766" stroke-width="9" stroke-linecap="round"/><path d="M309.38579,244.4096l23.72618,6.19276" data-paper-data="{&quot;origRot&quot;:0}" fill="none" stroke="#fff766" stroke-width="9" stroke-linecap="round"/><path d="M308.86076,245.42452l-6.19276,23.72618" data-paper-data="{&quot;origRot&quot;:0}" fill="none" stroke="#fff766" stroke-width="9" stroke-linecap="round"/><path d="M303.26544,269.56676l23.72618,6.19276" data-paper-data="{&quot;origRot&quot;:0}" fill="none" stroke="#fff766" stroke-width="9" stroke-linecap="round"/><path d="M314.63374,273.3425c-7.26273,-1.89564 -11.61358,-9.31995 -9.71795,-16.58265c1.89564,-7.26273 9.31995,-11.61358 16.58265,-9.71795c7.26273,1.89564 11.61358,9.31995 9.71795,16.58265c-1.89564,7.26273 -9.31995,11.61358 -16.58265,9.71795z" fill="#ffffff" stroke="none" stroke-width="9" stroke-linecap="butt"/><path d="M316.13199,267.60229c-4.09247,-1.06817 -6.54416,-5.25172 -5.47599,-9.34419c1.06817,-4.09247 5.25172,-6.54416 9.34419,-5.47599c4.09247,1.06817 6.54416,5.25172 5.47599,9.34419c-1.06817,4.09247 -5.25172,6.54416 -9.34419,5.47599z" fill="#191919" stroke="none" stroke-width="9" stroke-linecap="butt"/><path d="M253.76127,292.23724v-15.01502h109.60961v15.01502z" fill="#404040" stroke="none" stroke-width="0" stroke-linecap="butt"/><path d="M253.76127,193.88889v-15.01502h109.60961v15.01502z" fill="#404040" stroke="none" stroke-width="0" stroke-linecap="butt"/><path d="M265.59209,180.86078l15.01501,0.02029l-0.14812,109.60951l-15.01501,-0.02029z" fill="#404040" stroke="none" stroke-width="0" stroke-linecap="butt"/><path d="M336.65816,181.35627l15.015,0.02029l-0.14812,109.60951l-15.01501,-0.02029z" fill="#404040" stroke="none" stroke-width="0" stroke-linecap="butt"/><path d="M302.61912,189.35927l15.01501,0.01751l-0.14813,94.59727l-15.01501,-0.01751z" fill="#404040" stroke="none" stroke-width="0" stroke-linecap="butt"/></g><g><path d="M178.25335,254.39215v-24.52105" fill="none" stroke="#ff6666" stroke-width="9" stroke-linecap="round"/><path d="M153.04917,229.61941h24.52105" data-paper-data="{&quot;origRot&quot;:0}" fill="none" stroke="#ff6666" stroke-width="9" stroke-linecap="round"/><path d="M152.79748,255.25509v-24.52105" data-paper-data="{&quot;origRot&quot;:0}" fill="none" stroke="#ff6666" stroke-width="9" stroke-linecap="round"/><path d="M153.48062,255.50678h24.52105" data-paper-data="{&quot;origRot&quot;:0}" fill="none" stroke="#ff6666" stroke-width="9" stroke-linecap="round"/><path d="M165.43397,256.28907c-7.50604,0 -13.59086,-6.08484 -13.59086,-13.59086c0,-7.50604 6.08484,-13.59086 13.59086,-13.59086c7.50604,0 13.59086,6.08484 13.59086,13.59086c0,7.50604 -6.08484,13.59086 -13.59086,13.59086z" fill="#ffffff" stroke="none" stroke-width="9" stroke-linecap="butt"/><path d="M165.43397,250.35656c-4.22958,0 -7.65834,-3.42876 -7.65834,-7.65834c0,-4.22958 3.42876,-7.65834 7.65834,-7.65834c4.22958,0 7.65834,3.42876 7.65834,7.65834c0,4.22958 -3.42876,7.65834 -7.65834,7.65834z" fill="#191919" stroke="none" stroke-width="9" stroke-linecap="butt"/><path d="M168.90356,271.97295l-5.09559,-23.98576" fill="none" stroke="#00ff1b" stroke-width="9" stroke-linecap="round"/><path d="M139.10169,252.97854l23.98576,-5.09559" data-paper-data="{&quot;origRot&quot;:0}" fill="none" stroke="#00ff1b" stroke-width="9" stroke-linecap="round"/><path d="M144.1827,278.10689l-5.09559,-23.98576" data-paper-data="{&quot;origRot&quot;:0}" fill="none" stroke="#00ff1b" stroke-width="9" stroke-linecap="round"/><path d="M144.90323,278.21113l23.98576,-5.09559" data-paper-data="{&quot;origRot&quot;:0}" fill="none" stroke="#00ff1b" stroke-width="9" stroke-linecap="round"/><path d="M156.75821,276.49238c-7.34219,1.55979 -14.55863,-3.12777 -16.11842,-10.46993c-1.55979,-7.34219 3.12777,-14.55863 10.46993,-16.11842c7.34219,-1.55979 14.55863,3.12777 16.11842,10.46993c1.55979,7.34219 -3.12777,14.55863 -10.46993,16.11842z" fill="#ffffff" stroke="none" stroke-width="9" stroke-linecap="butt"/><path d="M155.52541,270.68938c-4.13725,0.87893 -8.20367,-1.76247 -9.0826,-5.89972c-0.87893,-4.13725 1.76247,-8.20367 5.89972,-9.0826c4.13725,-0.87893 8.20367,1.76247 9.0826,5.89972c0.87893,4.13725 -1.76247,8.20367 -5.89972,9.0826z" fill="#191919" stroke="none" stroke-width="9" stroke-linecap="butt"/><path d="M196.57726,252.02442l-6.19276,23.72618" fill="none" stroke="#fff766" stroke-width="9" stroke-linecap="round"/><path d="M195.97984,251.60837l-23.72618,-6.19276" data-paper-data="{&quot;origRot&quot;:0}" fill="none" stroke="#fff766" stroke-width="9" stroke-linecap="round"/><path d="M171.72862,246.43053l-6.19276,23.72618" data-paper-data="{&quot;origRot&quot;:0}" fill="none" stroke="#fff766" stroke-width="9" stroke-linecap="round"/><path d="M166.13331,270.57277l23.72618,6.19276" data-paper-data="{&quot;origRot&quot;:0}" fill="none" stroke="#fff766" stroke-width="9" stroke-linecap="round"/><path d="M177.50161,274.34851c-7.26273,-1.89564 -11.61358,-9.31995 -9.71795,-16.58265c1.89564,-7.26273 9.31995,-11.61358 16.58265,-9.71795c7.26273,1.89564 11.61358,9.31995 9.71795,16.58265c-1.89564,7.26273 -9.31995,11.61358 -16.58265,9.71795z" fill="#ffffff" stroke="none" stroke-width="9" stroke-linecap="butt"/><path d="M178.99984,268.6083c-4.09247,-1.06817 -6.54416,-5.25172 -5.47599,-9.34419c1.06817,-4.09247 5.25172,-6.54416 9.34419,-5.47599c4.09247,1.06817 6.54416,5.25172 5.47599,9.34419c-1.06817,4.09247 -5.25172,6.54416 -9.34419,5.47599z" fill="#191919" stroke="none" stroke-width="9" stroke-linecap="butt"/><path d="M116.62914,293.24325v-15.01502h109.60961v15.01502z" fill="#404040" stroke="none" stroke-width="0" stroke-linecap="butt"/><path d="M116.62914,194.8949v-15.01502h109.60961v15.01502z" fill="#404040" stroke="none" stroke-width="0" stroke-linecap="butt"/><path d="M128.45996,181.86679l15.01501,0.02029l-0.14812,109.60951l-15.01501,-0.02029z" fill="#404040" stroke="none" stroke-width="0" stroke-linecap="butt"/><path d="M199.52603,182.36228l15.015,0.02029l-0.14812,109.60951l-15.01501,-0.02029z" fill="#404040" stroke="none" stroke-width="0" stroke-linecap="butt"/><path d="M165.48699,190.36527l15.01501,0.01751l-0.14813,94.59728l-15.01501,-0.01751z" fill="#404040" stroke="none" stroke-width="0" stroke-linecap="butt"/></g><g data-paper-data="{&quot;index&quot;:null}"><path d="M231.67159,116.74798v24.52105" fill="none" stroke="#ff6666" stroke-width="9" stroke-linecap="round"/><path d="M256.87578,116.49629h-24.52105" data-paper-data="{&quot;origRot&quot;:0}" fill="none" stroke="#ff6666" stroke-width="9" stroke-linecap="round"/><path d="M257.12747,117.61092v24.52105" data-paper-data="{&quot;origRot&quot;:0}" fill="none" stroke="#ff6666" stroke-width="9" stroke-linecap="round"/><path d="M256.44433,142.38366h-24.52105" data-paper-data="{&quot;origRot&quot;:0}" fill="none" stroke="#ff6666" stroke-width="9" stroke-linecap="round"/><path d="M230.90012,129.57509c0,-7.50602 6.08482,-13.59086 13.59086,-13.59086c7.50602,0 13.59086,6.08482 13.59086,13.59086c0,7.50602 -6.08482,13.59086 -13.59086,13.59086c-7.50602,0 -13.59086,-6.08482 -13.59086,-13.59086z" fill="#ffffff" stroke="none" stroke-width="9" stroke-linecap="butt"/><path d="M236.83264,129.5751c0,-4.22958 3.42876,-7.65834 7.65834,-7.65834c4.22958,0 7.65834,3.42876 7.65834,7.65834c0,4.22958 -3.42876,7.65834 -7.65834,7.65834c-4.22958,0 -7.65834,-3.42876 -7.65834,-7.65834z" fill="#191919" stroke="none" stroke-width="9" stroke-linecap="butt"/><path d="M246.11697,134.86407l-5.09559,23.98576" fill="none" stroke="#00ff1b" stroke-width="9" stroke-linecap="round"/><path d="M270.82326,139.85542l-23.98576,-5.09559" data-paper-data="{&quot;origRot&quot;:0}" fill="none" stroke="#00ff1b" stroke-width="9" stroke-linecap="round"/><path d="M270.83784,140.99801l-5.09559,23.98576" data-paper-data="{&quot;origRot&quot;:0}" fill="none" stroke="#00ff1b" stroke-width="9" stroke-linecap="round"/><path d="M265.02172,165.088l-23.98576,-5.09559" data-paper-data="{&quot;origRot&quot;:0}" fill="none" stroke="#00ff1b" stroke-width="9" stroke-linecap="round"/><path d="M242.69681,147.25084c1.55979,-7.34216 8.77623,-12.02972 16.11842,-10.46993c7.34216,1.55979 12.02972,8.77623 10.46993,16.11842c-1.55979,7.34216 -8.77623,12.02972 -16.11842,10.46993c-7.34216,-1.55979 -12.02972,-8.77623 -10.46993,-16.11842z" fill="#ffffff" stroke="none" stroke-width="9" stroke-linecap="butt"/><path d="M248.49981,148.48366c0.87893,-4.13725 4.94535,-6.77865 9.0826,-5.89972c4.13725,0.87893 6.77865,4.94535 5.89972,9.0826c-0.87893,4.13725 -4.94535,6.77865 -9.0826,5.89972c-4.13725,-0.87893 -6.77865,-4.94535 -5.89972,-9.0826z" fill="#191919" stroke="none" stroke-width="9" stroke-linecap="butt"/><path d="M213.34768,138.9013l6.19276,23.72618" fill="none" stroke="#fff766" stroke-width="9" stroke-linecap="round"/><path d="M213.9451,138.48525l23.72618,-6.19276" data-paper-data="{&quot;origRot&quot;:0}" fill="none" stroke="#fff766" stroke-width="9" stroke-linecap="round"/><path d="M238.19632,133.30741l6.19276,23.72618" data-paper-data="{&quot;origRot&quot;:0}" fill="none" stroke="#fff766" stroke-width="9" stroke-linecap="round"/><path d="M243.79164,157.44965l-23.72618,6.19276" data-paper-data="{&quot;origRot&quot;:0}" fill="none" stroke="#fff766" stroke-width="9" stroke-linecap="round"/><path d="M215.84068,151.50744c-1.89563,-7.2627 2.45522,-14.68701 9.71795,-16.58265c7.2627,-1.89563 14.68701,2.45522 16.58265,9.71795c1.89563,7.2627 -2.45522,14.68701 -9.71795,16.58265c-7.2627,1.89563 -14.68701,-2.45522 -16.58265,-9.71795z" fill="#ffffff" stroke="none" stroke-width="9" stroke-linecap="butt"/><path d="M221.58089,150.00919c-1.06817,-4.09247 1.38352,-8.27602 5.47599,-9.34419c4.09247,-1.06817 8.27602,1.38352 9.34419,5.47599c1.06817,4.09247 -1.38352,8.27602 -5.47599,9.34419c-4.09247,1.06817 -8.27602,-1.38352 -9.34419,-5.47599z" fill="#191919" stroke="none" stroke-width="9" stroke-linecap="butt"/><path d="M183.68619,180.12011v-15.01502h109.60961v15.01502z" fill="#404040" stroke="none" stroke-width="0" stroke-linecap="butt"/><path d="M183.68619,81.77178v-15.01502h109.60961v15.01502z" fill="#404040" stroke="none" stroke-width="0" stroke-linecap="butt"/><path d="M281.61311,178.35318l-15.01501,0.02029l-0.14812,-109.60951l15.01501,-0.02029z" fill="#404040" stroke="none" stroke-width="0" stroke-linecap="butt"/><path d="M210.54703,178.84867l-15.01501,0.02029l-0.14812,-109.60951l15.015,-0.02029z" fill="#404040" stroke="none" stroke-width="0" stroke-linecap="butt"/><path d="M244.58609,171.83944l-15.01501,0.01751l-0.14813,-94.59728l15.01501,-0.01751z" fill="#404040" stroke="none" stroke-width="0" stroke-linecap="butt"/></g><g><path d="M225.12593,114.34115c0,-7.71971 4.70765,-13.97778 10.51481,-13.97778c5.80717,0 10.51481,6.25807 10.51481,13.97778c0,7.71971 -4.70765,13.97777 -10.51481,13.97777c-5.80717,0 -10.51481,-6.25806 -10.51481,-13.97777z" fill="none" stroke="#818181" stroke-width="5.5" stroke-linecap="butt"/><path d="M248.04445,114.34115l4.15555,4.4074l-0.37778,24.68149l-2.8963,4.53333h-24.30371l-3.9037,-5.54074l0.37777,-24.55555l2.3926,-3.90371z" fill="#818181" stroke="#818181" stroke-width="0.5" stroke-linecap="round"/><path d="M227.3926,140.91152l15.36296,-0.25185l-7.55556,-10.2z" fill="#000000" stroke="#000000" stroke-width="0.5" stroke-linecap="round"/><path d="M232.3037,136.75596v-12.21482h5.54074v12.21482z" fill="#000000" stroke="#000000" stroke-width="0.5" stroke-linecap="butt"/><path d="M231.92593,120.07078c0,-1.56481 1.26853,-2.83333 2.83333,-2.83333c1.56481,0 2.83334,1.26853 2.83334,2.83333c0,1.56481 -1.26853,2.83333 -2.83334,2.83333c-1.5648,0 -2.83333,-1.26853 -2.83333,-2.83333z" fill="#000000" stroke="#818181" stroke-width="0.5" stroke-linecap="butt"/></g><g><path d="M161.12593,223.84115c0,-7.71971 4.70765,-13.97778 10.51481,-13.97778c5.80717,0 10.51481,6.25807 10.51481,13.97778c0,7.71972 -4.70765,13.97778 -10.51481,13.97778c-5.80717,0 -10.51481,-6.25806 -10.51481,-13.97778z" fill="none" stroke="#818181" stroke-width="5.5" stroke-linecap="butt"/><path d="M184.04445,223.84115l4.15555,4.40741l-0.37778,24.68149l-2.8963,4.53333h-24.30371l-3.9037,-5.54074l0.37777,-24.55555l2.3926,-3.90371z" fill="#818181" stroke="#818181" stroke-width="0.5" stroke-linecap="round"/><path d="M163.3926,250.41152l15.36296,-0.25185l-7.55556,-10.2z" fill="#000000" stroke="#000000" stroke-width="0.5" stroke-linecap="round"/><path d="M168.3037,246.25596v-12.21482h5.54074v12.21482z" fill="#000000" stroke="#000000" stroke-width="0.5" stroke-linecap="butt"/><path d="M167.92593,229.57078c0,-1.56481 1.26853,-2.83334 2.83333,-2.83334c1.56481,0 2.83334,1.26853 2.83334,2.83334c0,1.56481 -1.26853,2.83333 -2.83334,2.83333c-1.5648,0 -2.83333,-1.26853 -2.83333,-2.83333z" fill="#000000" stroke="#818181" stroke-width="0.5" stroke-linecap="butt"/></g><g><path d="M299.12592,228.34115c0,-7.71971 4.70765,-13.97778 10.51481,-13.97778c5.80717,0 10.51481,6.25807 10.51481,13.97778c0,7.71972 -4.70764,13.97778 -10.51481,13.97778c-5.80717,0 -10.51481,-6.25806 -10.51481,-13.97778z" fill="none" stroke="#818181" stroke-width="5.5" stroke-linecap="butt"/><path d="M322.04445,228.34115l4.15555,4.40741l-0.37778,24.68148l-2.8963,4.53333h-24.30371l-3.9037,-5.54074l0.37777,-24.55555l2.3926,-3.90371z" fill="#818181" stroke="#818181" stroke-width="0.5" stroke-linecap="round"/><path d="M301.39259,254.91152l15.36296,-0.25185l-7.55556,-10.2z" fill="#000000" stroke="#000000" stroke-width="0.5" stroke-linecap="round"/><path d="M306.3037,250.75596v-12.21482h5.54074v12.21482z" fill="#000000" stroke="#000000" stroke-width="0.5" stroke-linecap="butt"/><path d="M305.92593,234.07078c0,-1.56481 1.26853,-2.83334 2.83333,-2.83334c1.56481,0 2.83334,1.26853 2.83334,2.83334c0,1.56481 -1.26853,2.83333 -2.83334,2.83333c-1.5648,0 -2.83333,-1.26853 -2.83333,-2.83333z" fill="#000000" stroke="#818181" stroke-width="0.5" stroke-linecap="butt"/></g></g></g></svg>