<svg version="1.1" xmlns="http://www.w3.org/2000/svg" xmlns:xlink="http://www.w3.org/1999/xlink" width="432" height="242.50371" viewBox="0,0,432,242.50371"><g transform="translate(-44.5,-199.99629)"><g data-paper-data="{&quot;isPaintingLayer&quot;:true}" fill-rule="nonzero" stroke-linejoin="miter" stroke-miterlimit="10" stroke-dasharray="" stroke-dashoffset="0" style="mix-blend-mode: normal"><path d="M44.5,393.5v-110h60v110z" fill="#a84e00" stroke="none" stroke-width="0" stroke-linecap="butt"/><path d="M188.5,442.5v-210h60v210z" fill="#a84e00" stroke="none" stroke-width="0" stroke-linecap="butt"/><path d="M348.5,379.5v-81h49v81z" fill="#a84e00" stroke="none" stroke-width="0" stroke-linecap="butt"/><path d="M345.5,350.5v-63h131v63z" fill="#a84e00" stroke="none" stroke-width="0" stroke-linecap="butt"/><g stroke-width="9"><path d="M216.17159,205.99798v24.52105" fill="none" stroke="#ff6666" stroke-linecap="round"/><g><path d="M240.54245,204.49629h-24.52105" data-paper-data="{&quot;origRot&quot;:0}" fill="none" stroke="#ff6666" stroke-linecap="round"/><path d="M240.79414,205.61092v24.52105" data-paper-data="{&quot;origRot&quot;:0}" fill="none" stroke="#ff6666" stroke-linecap="round"/><path d="M240.611,231.13366h-24.52105" data-paper-data="{&quot;origRot&quot;:0}" fill="none" stroke="#ff6666" stroke-linecap="round"/><path d="M215.06678,218.82509c0,-7.50602 6.08482,-13.59086 13.59086,-13.59086c7.50602,0 13.59086,6.08482 13.59086,13.59086c0,7.50602 -6.08482,13.59086 -13.59086,13.59086c-7.50602,0 -13.59086,-6.08482 -13.59086,-13.59086z" fill="#ffffff" stroke="none" stroke-linecap="butt"/><path d="M220.99931,218.8251c0,-4.22958 3.42876,-7.65834 7.65834,-7.65834c4.22958,0 7.65834,3.42876 7.65834,7.65834c0,4.22958 -3.42876,7.65834 -7.65834,7.65834c-4.22958,0 -7.65834,-3.42876 -7.65834,-7.65834z" fill="#191919" stroke="none" stroke-linecap="butt"/></g></g><g stroke-width="9"><path d="M372.27618,281.58128l-0.15431,-24.52056" fill="none" stroke="#00ff1b" stroke-linecap="round"/><path d="M372.80342,256.80473l24.52056,-0.15431" data-paper-data="{&quot;origRot&quot;:0}" fill="none" stroke="#00ff1b" stroke-linecap="round"/><path d="M397.43929,282.09327l-0.15431,-24.52056" data-paper-data="{&quot;origRot&quot;:0}" fill="none" stroke="#00ff1b" stroke-linecap="round"/><path d="M397.05545,282.53997l-24.52056,0.15431" data-paper-data="{&quot;origRot&quot;:0}" fill="none" stroke="#00ff1b" stroke-linecap="round"/><path d="M371.43114,269.89242c-0.04723,-7.50586 5.99917,-13.62887 13.50506,-13.67611c7.50587,-0.04723 13.62888,5.99917 13.67612,13.50506c0.04723,7.50586 -5.99917,13.62888 -13.50507,13.67612c-7.50586,0.04723 -13.62887,-5.99917 -13.67611,-13.50507z" fill="#ffffff" stroke="none" stroke-linecap="butt"/><path d="M377.36353,269.8551c-0.02661,-4.2295 3.3805,-7.67977 7.61,-7.70638c4.22949,-0.02661 7.67976,3.38049 7.70638,7.60999c0.02661,4.22949 -3.3805,7.67977 -7.60999,7.70639c-4.22949,0.02661 -7.67977,-3.3805 -7.70638,-7.60999z" fill="#191919" stroke="none" stroke-linecap="butt"/></g><g stroke-width="9"><path d="M70.41217,276.60543l-0.05326,-24.52099" fill="none" stroke="#fff766" stroke-linecap="round"/><path d="M71.04148,251.83126l24.521,-0.05326" data-paper-data="{&quot;origRot&quot;:0}" fill="none" stroke="#fff766" stroke-linecap="round"/><path d="M95.44935,253.31352l0.05326,24.521" data-paper-data="{&quot;origRot&quot;:0}" fill="none" stroke="#fff766" stroke-linecap="round"/><path d="M95.18727,277.66623l-24.52099,0.05327" data-paper-data="{&quot;origRot&quot;:0}" fill="none" stroke="#fff766" stroke-linecap="round"/><path d="M69.61529,264.91319c-0.0163,-7.506 6.05529,-13.60404 13.56131,-13.62034c7.50599,-0.0163 13.60404,6.05529 13.62034,13.56131c0.0163,7.50599 -6.05528,13.60404 -13.56131,13.62034c-7.50599,0.0163 -13.60405,-6.05528 -13.62035,-13.56131z" fill="#ffffff" stroke="none" stroke-linecap="butt"/><path d="M75.5478,264.9003c-0.00919,-4.22956 3.41213,-7.66576 7.64169,-7.67495c4.22956,-0.00919 7.66577,3.41213 7.67496,7.64169c0.00919,4.22956 -3.41213,7.66576 -7.6417,7.67495c-4.22956,0.00919 -7.66576,-3.41213 -7.67495,-7.64169z" fill="#191919" stroke="none" stroke-linecap="butt"/></g></g></g></svg>