<svg version="1.1" xmlns="http://www.w3.org/2000/svg" xmlns:xlink="http://www.w3.org/1999/xlink" width="49" height="51.6" viewBox="0,0,49,51.6"><defs><linearGradient x1="242.08318" y1="167.2697" x2="242.08318" y2="198.84826" gradientUnits="userSpaceOnUse" id="color-1"><stop offset="0" stop-color="#005d82"/><stop offset="1" stop-color="#112e54"/></linearGradient><linearGradient x1="242.08318" y1="177.06081" x2="242.08318" y2="189.05715" gradientUnits="userSpaceOnUse" id="color-2"><stop offset="0" stop-color="#064b71"/><stop offset="1" stop-color="#0b3e64"/></linearGradient></defs><g transform="translate(-215.5,-154.2)"><g data-paper-data="{&quot;isPaintingLayer&quot;:true}" stroke="none" stroke-miterlimit="10" stroke-dasharray="" stroke-dashoffset="0" style="mix-blend-mode: normal"><path d="M215.5,205.8v-51.6h49v51.6z" fill="none" fill-rule="nonzero" stroke-width="0" stroke-linecap="butt" stroke-linejoin="miter"/><path d="M215.5,205.8v-51.6h49v51.6z" data-paper-data="{&quot;origPos&quot;:null}" fill="none" fill-rule="nonzero" stroke-width="0" stroke-linecap="butt" stroke-linejoin="miter"/><path d="M232.91539,167.2697h18.33558c3.85062,0 6.97197,3.02447 6.97197,6.75559v18.06738c0,3.73084 -3.12134,6.75559 -6.97197,6.75559h-18.33558c-3.85053,0 -6.97203,-3.02476 -6.97203,-6.75559v-18.06738c0,-3.73111 3.1215,-6.75559 6.97203,-6.75559z" data-paper-data="{&quot;origPos&quot;:null}" fill="url(#color-1)" fill-rule="evenodd" stroke-width="14" stroke-linecap="round" stroke-linejoin="round"/><path d="M230.86077,183.05898c0,-6.19795 5.02443,-11.22238 11.22238,-11.22238c6.19795,0 11.22238,5.02443 11.22238,11.22238c0,6.19795 -5.02443,11.22238 -11.22238,11.22238c-6.19795,0 -11.22238,-5.02443 -11.22238,-11.22238z" data-paper-data="{&quot;origPos&quot;:null}" fill="#ffffff" fill-rule="nonzero" stroke-width="0" stroke-linecap="butt" stroke-linejoin="miter"/><path d="M236.08498,183.05898c0,-3.3127 2.68547,-5.99817 5.99817,-5.99817c3.3127,0 5.99817,2.68547 5.99817,5.99817c0,3.3127 -2.68547,5.99817 -5.99817,5.99817c-3.3127,0 -5.99817,-2.68547 -5.99817,-5.99817z" data-paper-data="{&quot;origPos&quot;:null}" fill="url(#color-2)" fill-rule="nonzero" stroke-width="0" stroke-linecap="butt" stroke-linejoin="miter"/><path d="M241.9972,181.21374c0,-1.30779 1.06017,-2.36796 2.36796,-2.36796c1.30779,0 2.36796,1.06017 2.36796,2.36796c0,1.30779 -1.06017,2.36796 -2.36796,2.36796c-1.30779,0 -2.36796,-1.06017 -2.36796,-2.36796z" data-paper-data="{&quot;origPos&quot;:null}" fill="#ffffff" fill-rule="nonzero" stroke-width="0" stroke-linecap="butt" stroke-linejoin="miter"/></g></g></svg>